<mxfile host="app.diagrams.net" modified="2023-06-07T18:06:46.167Z" agent="Mozilla/5.0 (Windows NT 10.0; Win64; x64) AppleWebKit/537.36 (KHTML, like Gecko) Chrome/112.0.0.0 Safari/537.36 OPR/98.0.0.0" etag="NlrfIKFoswYbaTZfqQ2D" version="21.3.7" type="github">
  <diagram name="Pagina-1" id="qlNaZa-vg_41t0tVp2_G">
    <mxGraphModel dx="1010" dy="542" grid="1" gridSize="10" guides="1" tooltips="1" connect="1" arrows="1" fold="1" page="1" pageScale="1" pageWidth="827" pageHeight="1169" math="0" shadow="0">
      <root>
        <mxCell id="0" />
        <mxCell id="1" parent="0" />
        <mxCell id="lUH7GNHiZuxZDdnGOZ4G-1" value="&amp;lt;&amp;lt;Interface&amp;gt;&amp;gt;&lt;br&gt;IRegistrazione" style="swimlane;fontStyle=1;align=center;verticalAlign=top;childLayout=stackLayout;horizontal=1;startSize=40;horizontalStack=0;resizeParent=1;resizeParentMax=0;resizeLast=0;collapsible=1;marginBottom=0;whiteSpace=wrap;html=1;" vertex="1" parent="1">
          <mxGeometry x="240" y="140" width="230" height="200" as="geometry" />
        </mxCell>
        <mxCell id="lUH7GNHiZuxZDdnGOZ4G-2" value="" style="line;strokeWidth=1;fillColor=none;align=left;verticalAlign=middle;spacingTop=-1;spacingLeft=3;spacingRight=3;rotatable=0;labelPosition=right;points=[];portConstraint=eastwest;strokeColor=inherit;" vertex="1" parent="lUH7GNHiZuxZDdnGOZ4G-1">
          <mxGeometry y="40" width="230" height="8" as="geometry" />
        </mxCell>
        <mxCell id="lUH7GNHiZuxZDdnGOZ4G-3" value="+registraUtente(Nome:String, Cognome: String, Username: String, Password:&lt;br&gt;String, Telefono: String)&lt;br&gt;&lt;br&gt;+registraUtente(Nome: String, Cognome:&lt;br&gt;String, Username: String, Password:&lt;br&gt;String, DocumentoDiIdentitÃ : Blob, Telefono: String, Zona: String, Professione: String, Specializzazione: String)&amp;nbsp;" style="text;strokeColor=none;fillColor=none;align=left;verticalAlign=top;spacingLeft=4;spacingRight=4;overflow=hidden;rotatable=0;points=[[0,0.5],[1,0.5]];portConstraint=eastwest;whiteSpace=wrap;html=1;" vertex="1" parent="lUH7GNHiZuxZDdnGOZ4G-1">
          <mxGeometry y="48" width="230" height="152" as="geometry" />
        </mxCell>
      </root>
    </mxGraphModel>
  </diagram>
</mxfile>
